<?xml version="1.0" encoding="UTF-8"?>
<svg width="18px" height="14px" viewBox="0 0 18 14" version="1.1" xmlns="http://www.w3.org/2000/svg" xmlns:xlink="http://www.w3.org/1999/xlink">
    <!-- Generator: Sketch 54 (76480) - https://sketchapp.com -->
    <title>添加检查项复制</title>
    <desc>Created with Sketch.</desc>
    <g id="优化" stroke="none" stroke-width="1" fill="none" fill-rule="evenodd">
        <g id="流程4" transform="translate(-1437.000000, -359.000000)" fill="#2e6e75">
            <g id="添加检查项复制" transform="translate(1437.000000, 359.000000)">
                <path d="M13,14 C10.2385763,14 8,11.7614237 8,9 C8,6.23857625 10.2385763,4 13,4 C15.7614237,4 18,6.23857625 18,9 C18,11.7614237 15.7614237,14 13,14 Z M12.4285714,8.42857143 L9.57142857,8.42857143 C9.25583729,8.42857143 9,8.68440871 9,9 C9,9.31559129 9.25583729,9.57142857 9.57142857,9.57142857 L12.4285714,9.57142857 L12.4285714,12.4285714 C12.4285714,12.7441627 12.6844087,13 13,13 C13.3155913,13 13.5714286,12.7441627 13.5714286,12.4285714 L13.5714286,9.57142857 L16.4285714,9.57142857 C16.7441627,9.57142857 17,9.31559129 17,9 C17,8.68440871 16.7441627,8.42857143 16.4285714,8.42857143 L13.5714286,8.42857143 L13.5714286,5.57142857 C13.5714286,5.25583729 13.3155913,5 13,5 C12.6844087,5 12.4285714,5.25583729 12.4285714,5.57142857 L12.4285714,8.42857143 Z" id="形状结合复制-2"></path>
                <path d="M4.53135138,6.35185185 L7.17135138,6.35185185 C7.27076264,6.35185185 7.35135138,6.64203766 7.35135138,7 C7.35135138,7.35796234 7.27076264,7.64814815 7.17135138,7.64814815 L4.53135138,7.64814815 C4.43194013,7.64814815 4.35135138,7.35796234 4.35135138,7 C4.35135138,6.64203766 4.43194013,6.35185185 4.53135138,6.35185185 Z" id="路径" fill-rule="nonzero"></path>
                <path d="M0.567567602,1.2962963 C0.364795237,1.2962963 0.177425843,1.17275997 0.0760396596,0.972222228 C-0.025346524,0.771684491 -0.025346524,0.524611808 0.0760396596,0.324074071 C0.177425843,0.123536333 0.364795237,-4.87978382e-09 0.567567602,0 L13.4324324,0 C13.7458913,2.63849299e-16 14,0.290185811 14,0.64814815 C14,1.00611049 13.7458913,1.2962963 13.4324324,1.2962963 L0.567567602,1.2962963 L0.567567602,1.2962963 Z" id="路径" fill-rule="nonzero"></path>
                <path d="M7.67567568,12.7037037 C7.85479505,12.7037037 8,12.9938895 8,13.3518519 C8,13.7098142 7.85479505,14 7.67567568,14 L0.324324344,14 C0.208454418,14 0.101386188,13.8764637 0.0434512236,13.6759259 C-0.0144837412,13.4753882 -0.0144837412,13.2283155 0.0434512236,13.0277778 C0.101386188,12.82724 0.208454418,12.7037037 0.324324344,12.7037037 L7.67567568,12.7037037 L7.67567568,12.7037037 Z" id="路径" fill-rule="nonzero"></path>
                <polygon id="路径" fill-rule="nonzero" points="3.38284281e-08 4.12351853 3.27562165 7 3.38284281e-08 9.87604939"></polygon>
            </g>
        </g>
    </g>
</svg>