<?xml version="1.0" encoding="UTF-8"?>
<svg width="16px" height="16px" viewBox="0 0 16 16" version="1.1" xmlns="http://www.w3.org/2000/svg" xmlns:xlink="http://www.w3.org/1999/xlink">
    <!-- Generator: Sketch 58 (84663) - https://sketch.com -->
    <title>编辑</title>
    <desc>Created with Sketch.</desc>
    <g id="优化" stroke="none" stroke-width="1" fill="none" fill-rule="evenodd">
        <g id="第三版工作平台-案件卷宗" transform="translate(-312.000000, -577.000000)" fill="#2E6E75" fill-rule="nonzero">
            <g id="编组-17" transform="translate(295.000000, 412.000000)">
                <g id="编辑" transform="translate(17.000000, 165.000000)">
                    <path d="M13.5373684,7.19277248 C12.9810011,7.19357359 12.5301759,7.64439875 12.5293748,8.20076608 L12.5293748,13.9825475 L2.01598717,13.9825475 L2.01598717,3.47061436 L7.57231545,3.47061436 C8.10799595,3.44182637 8.52759303,2.99907426 8.52759303,2.46262077 C8.52759303,1.92616728 8.10799595,1.48341517 7.57231545,1.45462718 L1.00653905,1.45462718 C0.450739843,1.45622835 0.000798557669,1.90681984 -1.0125234e-13,2.46262078 L-1.0125234e-13,14.9919956 C-1.0125234e-13,15.5476284 0.450906219,15.9999987 1.00799359,15.9999987 L13.5373684,15.9999987 C13.8050608,16.0011556 14.0621262,15.8953312 14.2514151,15.7060423 C14.440704,15.5167534 14.5465284,15.259688 14.5453715,14.9919956 L14.5453715,8.20076608 C14.5445609,7.64439876 14.0937357,7.19357359 13.5373684,7.19277248 Z M5.48214694,8.72730635 C5.37819602,8.72769576 5.27870564,8.76958645 5.20578506,8.84367108 C5.16192348,8.89061026 5.12912216,8.94677009 5.10978567,9.00803367 L4.37524489,11.1607472 C4.34088223,11.3015749 4.38843656,11.449774 4.49832439,11.5443144 C4.60821222,11.6388548 4.76185043,11.6637486 4.89596884,11.6087444 L7.04286428,10.8712945 C7.08702567,10.852654 7.12706586,10.8254662 7.1606817,10.791295 C7.30924216,10.6392592 7.30924216,10.3964253 7.1606817,10.2443894 L5.75705428,8.840762 C5.68419296,8.76782965 5.58523816,8.72699116 5.48214694,8.72730635 Z M15.7773541,1.23353768 L14.7708151,0.228453169 C14.6283055,0.0803178515 14.4309053,-0.00232703807 14.225364,9.09817432e-05 C14.0188164,-0.00313543794 13.8202079,0.0795741918 13.6770039,0.228453169 L13.0908258,0.821903935 L15.1737216,2.90916339 L15.7773541,2.33316704 C16.0729005,2.0261992 16.0729005,1.54050552 15.7773541,1.23353768 Z M9.26539559,9.26112297 L14.2908182,4.24006401 C14.3451827,4.20866752 14.3903299,4.16352027 14.4217264,4.10915575 L14.545362,3.98261111 L12.0057418,1.45462718 L6.73159353,6.72295729 L5.84869006,7.60586076 C5.84141737,7.61313345 5.8341447,7.62913334 5.8181448,7.6349515 L8.36649222,10.1818444 L9.26394105,9.26112297 L9.26539559,9.26112297 Z" id="在线编辑"></path>
                </g>
            </g>
        </g>
    </g>
</svg>
