<?xml version="1.0" encoding="UTF-8"?>
<svg width="16px" height="16px" viewBox="0 0 16 16" version="1.1" xmlns="http://www.w3.org/2000/svg" xmlns:xlink="http://www.w3.org/1999/xlink">
    <!-- Generator: Sketch 58 (84663) - https://sketch.com -->
    <title>编辑1</title>
    <desc>Created with Sketch.</desc>
    <g id="-页面" stroke="none" stroke-width="1" fill="none" fill-rule="evenodd">
        <g id="编辑1" fill="#999999" fill-rule="nonzero">
            <path d="M7.31346899,14.6414729 L15.317345,14.6414729 C15.685562,14.6414729 15.9835271,14.939438 15.9835271,15.307655 C15.9835271,15.6758721 15.685562,15.9738372 15.317345,15.9738372 L7.31346899,15.9738372 C6.94525194,15.9738372 6.64728682,15.6758721 6.64728682,15.307655 C6.64728682,14.939438 6.94525194,14.6414729 7.31346899,14.6414729 Z M13.2218992,6.46075581 L4.73352713,14.9491279 L0.0169573643,15.8914729 L0.959302326,11.1749031 L9.4500969,2.68895349 L13.2218992,6.46075581 Z M14.1642442,5.51841085 L10.3924419,1.74660853 L11.3347868,0.804263566 C12.3764535,-0.237403101 14.0649225,-0.237403101 15.1065891,0.804263566 C16.1482558,1.84593023 16.1482558,3.53439922 15.1065891,4.57606589 L14.1642442,5.51841085 L14.1642442,5.51841085 Z" id="形状"></path>
        </g>
    </g>
</svg>