<?xml version="1.0" encoding="UTF-8"?>
<svg width="16px" height="16px" viewBox="0 0 16 16" version="1.1" xmlns="http://www.w3.org/2000/svg" xmlns:xlink="http://www.w3.org/1999/xlink">
    <!-- Generator: Sketch 58 (84663) - https://sketch.com -->
    <title>删除2备份</title>
    <desc>Created with Sketch.</desc>
    <g id="-" stroke="none" stroke-width="1" fill="none" fill-rule="evenodd">
        <g id="删除悬停">
            <g id="删除2备份">
                <rect id="矩形备份-23" fill-opacity="0.01" fill="#FFFFFF" x="0" y="0" width="16" height="16"></rect>
                <path d="M11.0671141,1 C11.6711409,1 12.1744966,1.50654721 12.1744966,2.1371468 L12.1744966,2.1371468 L12.1744966,3.05720193 L15.4865772,3.05720193 C15.7684564,3.05720193 16,3.29496899 16,3.58442453 C16,3.87388008 15.7684564,4.11164714 15.4865772,4.11164714 L15.4865772,4.11164714 L13.765,4.111 L13.7651007,14.7181254 C13.7651007,15.0105346 13.6689495,15.2953487 13.495666,15.5204875 L13.4026846,15.6278429 C13.1711409,15.8656099 12.8590604,16 12.5268456,16 L12.5268456,16 L4.48322148,16 C3.7885906,16 3.22483221,15.4210889 3.22483221,14.7077877 L3.22483221,14.7077877 L3.224,4.111 L1.51342282,4.11164714 C1.26286353,4.11164714 1.05207557,3.92378181 1.00832712,3.67874008 L1,3.58442453 C1,3.29496899 1.23154362,3.05720193 1.51342282,3.05720193 L1.51342282,3.05720193 L4.8557047,3.05720193 L4.8557047,2.1371468 C4.8557047,1.51688491 5.34899329,1 5.96308725,1 L5.96308725,1 Z M6.02348993,6.28256375 C5.77181208,6.28256375 5.5704698,6.48931771 5.5704698,6.74776017 L5.5704698,6.74776017 L5.5704698,12.4955203 C5.5704698,12.7539628 5.77181208,12.9607167 6.02348993,12.9607167 C6.1442953,12.9607167 6.25503356,12.919366 6.34563758,12.8263267 C6.4261745,12.7436251 6.47651007,12.6195727 6.47651007,12.4955203 L6.47651007,12.4955203 L6.47651007,6.74776017 C6.47651007,6.48931771 6.27516779,6.28256375 6.02348993,6.28256375 Z M8.5,6.28256375 C8.24832215,6.28256375 8.04697987,6.48931771 8.04697987,6.74776017 L8.04697987,6.74776017 L8.04697987,12.4955203 C8.04697987,12.7539628 8.24832215,12.9607167 8.5,12.9607167 C8.75167785,12.9607167 8.95302013,12.7539628 8.95302013,12.4955203 L8.95302013,12.4955203 L8.95302013,6.74776017 C8.95302013,6.48931771 8.75167785,6.28256375 8.5,6.28256375 Z M10.9865772,6.28256375 C10.7248322,6.28256375 10.5234899,6.48931771 10.5234899,6.74776017 L10.5234899,6.74776017 L10.5234899,12.4851826 C10.533557,12.7539628 10.7348993,12.9607167 10.9865772,12.9607167 C11.238255,12.9607167 11.4395973,12.7539628 11.4395973,12.4955203 L11.4395973,12.4955203 L11.4395973,6.74776017 C11.4395973,6.48931771 11.238255,6.28256375 10.9865772,6.28256375 Z M11.147651,2.04410751 L5.88255034,2.04410751 L5.88255034,3.05720193 L11.147651,3.05720193 L11.147651,2.04410751 Z" id="删除1" fill="#2E6E75" fill-rule="nonzero"></path>
            </g>
        </g>
    </g>
</svg>