<?xml version="1.0" encoding="UTF-8"?>
<svg width="16px" height="15px" viewBox="0 0 16 15" version="1.1" xmlns="http://www.w3.org/2000/svg" xmlns:xlink="http://www.w3.org/1999/xlink">
    <!-- Generator: Sketch 58 (84663) - https://sketch.com -->
    <title>设置 (1)</title>
    <desc>Created with Sketch.</desc>
    <g id="优化" stroke="none" stroke-width="1" fill="none" fill-rule="evenodd">
        <g id="自定义子任务" transform="translate(-468.000000, -151.000000)" fill="#999999" fill-rule="nonzero">
            <g id="设置-(1)" transform="translate(468.000000, 151.000000)">
                <path d="M7.41996951,10.4878049 C8.33115768,10.4878049 9.10716143,11.0665981 9.40038316,11.8765871 L15.2477134,11.8769055 C15.6440549,11.8769055 15.9641768,12.1989329 15.9641768,12.5933689 C15.9641768,12.9878049 15.6459604,13.3098323 15.2496189,13.3098323 L9.4003753,13.3101724 C9.10714756,14.12015 8.33114954,14.6989329 7.41996951,14.6989329 C6.50878949,14.6989329 5.73279146,14.12015 5.43956372,13.3101724 L0.718368902,13.3098323 C0.322027439,13.3098323 0.00190548781,12.9878049 0.00190548781,12.5933689 C0.00190548781,12.1989329 0.323932927,11.8769055 0.718368902,11.8769055 L5.43955586,11.8765871 C5.7327776,11.0665981 6.50878135,10.4878049 7.41996951,10.4878049 Z M11.0651677,5.2496189 C11.9774549,5.2496189 12.7542313,5.82980921 13.0466402,6.64133295 L15.2477134,6.640625 C15.6440549,6.640625 15.9641768,6.96265244 15.9641768,7.35708841 C15.9641768,7.75152439 15.6459604,8.07355183 15.2496189,8.07355183 L13.0448599,8.07395435 C12.7510885,8.88290132 11.9756096,9.46074695 11.0651677,9.46074695 C10.1547258,9.46074695 9.37924691,8.88290132 9.08547542,8.07395435 L0.718368902,8.07355183 C0.322027439,8.07355183 0.00190548781,7.75152439 0.00190548781,7.35708841 C0.00190548781,6.96265244 0.323932927,6.640625 0.718368902,6.640625 L9.08369516,6.64133295 C9.37610405,5.82980921 10.1528805,5.2496189 11.0651677,5.2496189 Z M5.74314024,0.0114329268 C6.65542741,0.0114329268 7.43220387,0.59162323 7.72461277,1.40314698 L15.2477134,1.40243902 C15.6440549,1.40243902 15.9641768,1.72446646 15.9641768,2.11890244 C15.9641768,2.51333841 15.6459604,2.83536585 15.2496189,2.83536585 L7.72318951,2.83478454 C7.42968968,3.64424679 6.65395122,4.22256098 5.74314024,4.22256098 C4.83232927,4.22256098 4.05659081,3.64424679 3.76309098,2.83478454 L0.718368902,2.83536585 C0.322027439,2.83536585 0.00190548781,2.51333841 0.00190548781,2.11890244 C0.00190548781,1.72446646 0.323932927,1.40243902 0.718368902,1.40243902 L3.76166772,1.40314698 C4.05407661,0.59162323 4.83085308,0.0114329268 5.74314024,0.0114329268 Z" id="形状结合"></path>
            </g>
        </g>
    </g>
</svg>