<?xml version="1.0" encoding="UTF-8"?>
<svg width="17px" height="16px" viewBox="0 0 17 16" version="1.1" xmlns="http://www.w3.org/2000/svg" xmlns:xlink="http://www.w3.org/1999/xlink">
    <!-- Generator: Sketch 58 (84663) - https://sketch.com -->
    <title>自定义</title>
    <desc>Created with Sketch.</desc>
    <g id="优化" stroke="none" stroke-width="1" fill="none" fill-rule="evenodd">
        <g id="自定义子任务" transform="translate(-486.000000, -131.000000)" fill="#999999">
            <g id="自定义" transform="translate(487.000000, 131.000000)">
                <g transform="translate(-1.000000, 0.000000)" id="形状">
                    <path d="M12.8605263,7.55175439 L16.4061404,4.18333333 C17.1140842,3.47536947 17.1140842,2.32755451 16.4061404,1.61959064 L15.521345,0.734795322 C14.8261127,0.0397626133 13.7036095,0.0254946048 12.9909357,0.702631579 L9.52777778,3.99093567 L6.16403509,0.397368421 L6.13654971,0.36871345 C5.9152707,0.145444556 5.61433522,0.019263063 5.29999199,0.0178408719 C4.98564876,0.0166307401 4.68366719,0.140287807 4.46052632,0.361695906 L1.93538012,2.88684211 C1.48511031,3.34046234 1.47605179,4.06954323 1.91491228,4.53421053 L5.22894737,8.0745614 L2.09561404,11.0511696 C1.83943387,11.2946521 1.65995875,11.6076665 1.57923977,11.9517544 L1.0494152,14.2131579 C0.952226032,14.6286949 0.739345037,15.3176067 1.0494152,15.6108187 C1.35948537,15.9040307 2.14580206,15.7573775 2.55526316,15.6371345 L4.73538012,14.9950292 C5.01103275,14.9135834 5.26351744,14.7681041 5.47222222,14.5704678 L8.56169591,11.6353801 L12.2827485,15.6108187 L12.3102339,15.6394737 C12.5315129,15.8627426 12.8324484,15.9889241 13.1467916,15.9903463 C13.4611349,15.9915564 13.7631164,15.8678993 13.9862573,15.6464912 L16.5114035,13.121345 C16.9616733,12.6677248 16.9707318,11.9386439 16.5318713,11.4739766 L12.8605263,7.55175439 Z M5.4119883,13.0149123 L3.76520468,11.3681287 C3.71353305,11.3176794 3.65282706,11.2774072 3.58625731,11.2494152 L11.7657895,3.47865497 L13.4885965,5.20146199 C13.5143275,5.22719298 13.5464912,5.23947368 13.575731,5.25935673 L5.4119883,13.0149123 L5.4119883,13.0149123 Z M13.7961988,1.5494152 C14.04913,1.30936562 14.4472686,1.31455309 14.6938596,1.56111111 L15.578655,2.44590643 C15.830117,2.69736842 15.830117,3.10438596 15.5669591,3.36695906 L14.3891813,4.48567251 C14.3657895,4.44766082 14.3482456,4.40730994 14.3149123,4.37397661 L12.6131579,2.67222222 L13.7961988,1.5494152 L13.7961988,1.5494152 Z M4.84707602,5.95584795 C4.99327485,5.95350877 5.13947368,5.89795322 5.25116959,5.78625731 L6.12836257,4.90906433 C6.27607414,4.76135277 6.33376207,4.54605847 6.27969589,4.34428072 C6.22562971,4.14250297 6.06802334,3.98489661 5.86624559,3.93083043 C5.66446785,3.87676424 5.44917355,3.93445218 5.30146199,4.08216374 L4.42426901,4.95935673 C4.32714012,5.05911505 4.26921545,5.19053553 4.26111111,5.32953216 L2.76929825,3.73538012 C2.75994152,3.72602339 2.75994152,3.71666667 2.7628655,3.71432749 L5.2880117,1.18859649 C5.29035088,1.18625731 5.3002924,1.18625731 5.31081871,1.19619883 L8.68040936,4.79619883 L6.07748538,7.26929825 L4.84707602,5.95584795 Z M2.2248538,14.5154971 C2.21477617,14.5185504 2.20383515,14.5159492 2.19620996,14.5086871 C2.18858476,14.5014251 2.18545329,14.4906239 2.1880117,14.4804094 L2.71783626,12.2190058 C2.73596491,12.1429825 2.77163743,12.0733918 2.81491228,12.0090643 C2.84371137,12.0782324 2.88561071,12.1411807 2.93830409,12.1944444 L4.55175439,13.8078947 C4.50592333,13.8355524 4.45680797,13.8573596 4.40555556,13.872807 L2.2248538,14.5154971 L2.2248538,14.5154971 Z M13.1593567,14.8201754 C13.1570175,14.8225146 13.147076,14.8225146 13.1365497,14.8125731 L10.8412281,12.3605263 C10.937813,12.3367703 11.0265132,12.2881868 11.098538,12.2195906 L11.975731,11.3423977 C12.1234426,11.1946861 12.1811305,10.9793918 12.1270643,10.777614 C12.0729981,10.5758363 11.9153918,10.4182299 11.713614,10.3641637 C11.5118363,10.3100976 11.296542,10.3677855 11.1488304,10.5154971 L10.2716374,11.3926901 C10.2115679,11.4543867 10.1660174,11.528706 10.1383041,11.6102339 L9.40906433,10.8307018 L12.0119883,8.35760234 L15.6774854,12.2739766 C15.6862573,12.2833333 15.6862573,12.2926901 15.6839181,12.2950292 L13.1593567,14.8201754 Z" fill-rule="nonzero"></path>
                </g>
            </g>
        </g>
    </g>
</svg>